<?xml version="1.0" encoding="utf-8"?>
<!-- Generator: Adobe Illustrator 25.4.1, SVG Export Plug-In . SVG Version: 6.00 Build 0)  -->
<svg version="1.1" id="katman_1" xmlns="http://www.w3.org/2000/svg" xmlns:xlink="http://www.w3.org/1999/xlink" x="0px" y="0px"
	 viewBox="0 0 720 480" style="enable-background:new 0 0 720 480;" xml:space="preserve">
<style type="text/css">
	.st0{fill:#FFFFFF;}
	.st1{fill:url(#SVGID_1_);}
	.st2{fill:url(#SVGID_00000035502908573620219870000013662887171448812218_);}
</style>
<rect class="st0" width="720" height="481"/>
<g>
	<linearGradient id="SVGID_1_" gradientUnits="userSpaceOnUse" x1="245.2218" y1="305.1775" x2="474.7782" y2="305.1775">
		<stop  offset="0" style="stop-color:#4C9EFF"/>
		<stop  offset="0.5" style="stop-color:#9B7BFF"/>
		<stop  offset="1" style="stop-color:#FF73A1"/>
	</linearGradient>
	<path class="st1" d="M373.5,248.8h-45.4h-43.6c0,0-39.2-0.7-39.2,28.9v76.4c0,4,3.3,7.3,7.3,7.3h68.2c4,0,7.3-3.3,7.3-7.3v-65.9
		c0-1.9,2.4-2.9,3.7-1.5c25.4,26.5,52.6,59.2,61.9,70.6c2.2,2.6,5.4,4.2,8.8,4.2h60.8c9.5,0,14.9-11,9-18.5
		C447.2,311.1,395.6,248.8,373.5,248.8z"/>
	
		<linearGradient id="SVGID_00000012464659006794941630000015089950528451047568_" gradientUnits="userSpaceOnUse" x1="245.2218" y1="175.8225" x2="474.7783" y2="175.8225">
		<stop  offset="0" style="stop-color:#4C9EFF"/>
		<stop  offset="0.5" style="stop-color:#9B7BFF"/>
		<stop  offset="1" style="stop-color:#FF73A1"/>
	</linearGradient>
	<path style="fill:url(#SVGID_00000012464659006794941630000015089950528451047568_);" d="M284.5,232.2h43.6h45.4
		c22,0,73.7-62.2,98.8-94.2c5.9-7.5,0.5-18.5-9-18.5h-60.8c-3.4,0-6.7,1.5-8.8,4.2c-9.4,11.4-36.5,44.1-61.9,70.6
		c-1.3,1.4-3.7,0.4-3.7-1.5v-65.9c0-4-3.3-7.3-7.3-7.3h-68.2c-4,0-7.3,3.3-7.3,7.3v76.4C245.2,232.9,284.5,232.2,284.5,232.2z"/>
</g>
</svg>
