<?xml version="1.0" encoding="utf-8"?>
<!-- Generator: Adobe Illustrator 25.4.1, SVG Export Plug-In . SVG Version: 6.00 Build 0)  -->
<svg version="1.1" id="katman_1" xmlns="http://www.w3.org/2000/svg" xmlns:xlink="http://www.w3.org/1999/xlink" x="0px" y="0px"
	 viewBox="0 0 32 32" style="enable-background:new 0 0 32 32;" xml:space="preserve">
<style type="text/css">
	.st0{stroke:#FFFFFF;stroke-width:2.4;stroke-linecap:round;stroke-linejoin:round;}
	.st1{fill:#FFFFFF;}
	.st2{fill:url(#SVGID_1_);}
	.st3{fill:url(#SVGID_00000163060578359050577580000014003659806354805404_);}
</style>
<path class="st0" d="M10,22l6-12l8,12"/>
<g>
	<rect x="2.9" y="2.9" class="st1" width="26.2" height="26.2"/>
	<g>
		<linearGradient id="SVGID_1_" gradientUnits="userSpaceOnUse" x1="4.4334" y1="22.5178" x2="27.5666" y2="22.5178">
			<stop  offset="0" style="stop-color:#4C9EFF"/>
			<stop  offset="0.5" style="stop-color:#9B7BFF"/>
			<stop  offset="1" style="stop-color:#FF73A1"/>
		</linearGradient>
		<path class="st2" d="M17.4,16.8h-4.6H8.4c0,0-4-0.1-4,2.9v7.7c0,0.4,0.3,0.7,0.7,0.7H12c0.4,0,0.7-0.3,0.7-0.7v-6.6
			c0-0.2,0.2-0.3,0.4-0.2c2.6,2.7,5.3,6,6.2,7.1c0.2,0.3,0.5,0.4,0.9,0.4h6.1c1,0,1.5-1.1,0.9-1.9C24.8,23.1,19.6,16.8,17.4,16.8z"
			/>
		
			<linearGradient id="SVGID_00000178887607793198919250000015459023204335343745_" gradientUnits="userSpaceOnUse" x1="4.4334" y1="9.4822" x2="27.5666" y2="9.4822">
			<stop  offset="0" style="stop-color:#4C9EFF"/>
			<stop  offset="0.5" style="stop-color:#9B7BFF"/>
			<stop  offset="1" style="stop-color:#FF73A1"/>
		</linearGradient>
		<path style="fill:url(#SVGID_00000178887607793198919250000015459023204335343745_);" d="M8.4,15.2h4.4h4.6c2.2,0,7.4-6.3,10-9.5
			c0.6-0.8,0.1-1.9-0.9-1.9h-6.1c-0.3,0-0.7,0.2-0.9,0.4c-0.9,1.2-3.7,4.4-6.2,7.1c-0.1,0.1-0.4,0-0.4-0.2V4.5
			c0-0.4-0.3-0.7-0.7-0.7H5.2c-0.4,0-0.7,0.3-0.7,0.7v7.7C4.4,15.2,8.4,15.2,8.4,15.2z"/>
	</g>
</g>
</svg>
