<?xml version="1.0" encoding="utf-8"?>
<!-- Generator: Adobe Illustrator 25.4.1, SVG Export Plug-In . SVG Version: 6.00 Build 0)  -->
<svg version="1.1" id="katman_1" xmlns="http://www.w3.org/2000/svg" xmlns:xlink="http://www.w3.org/1999/xlink" x="0px" y="0px"
	 viewBox="0 0 28 28" style="enable-background:new 0 0 28 28;" xml:space="preserve">
<style type="text/css">
	.st0{fill:#FFFFFF;}
	.st1{fill:url(#SVGID_1_);}
	.st2{fill:url(#SVGID_00000099648662416981329110000016245955720551258002_);}
</style>
<rect x="0" class="st0" width="28" height="28"/>
<g>
	<linearGradient id="SVGID_1_" gradientUnits="userSpaceOnUse" x1="1.6173" y1="20.9776" x2="26.3827" y2="20.9776">
		<stop  offset="0" style="stop-color:#4C9EFF"/>
		<stop  offset="0.5" style="stop-color:#9B7BFF"/>
		<stop  offset="1" style="stop-color:#FF73A1"/>
	</linearGradient>
	<path class="st1" d="M15.5,14.9h-4.9H5.9c0,0-4.2-0.1-4.2,3.1v8.2c0,0.4,0.4,0.8,0.8,0.8h7.4c0.4,0,0.8-0.4,0.8-0.8v-7.1
		c0-0.2,0.3-0.3,0.4-0.2c2.7,2.9,5.7,6.4,6.7,7.6c0.2,0.3,0.6,0.5,1,0.5h6.6c1,0,1.6-1.2,1-2C23.4,21.6,17.8,14.9,15.5,14.9z"/>
	
		<linearGradient id="SVGID_00000130606561222322295860000011763021481840144051_" gradientUnits="userSpaceOnUse" x1="1.6173" y1="7.0224" x2="26.3827" y2="7.0224">
		<stop  offset="0" style="stop-color:#4C9EFF"/>
		<stop  offset="0.5" style="stop-color:#9B7BFF"/>
		<stop  offset="1" style="stop-color:#FF73A1"/>
	</linearGradient>
	<path style="fill:url(#SVGID_00000130606561222322295860000011763021481840144051_);" d="M5.9,13.1h4.7h4.9c2.4,0,8-6.7,10.7-10.2
		c0.6-0.8,0.1-2-1-2h-6.6c-0.4,0-0.7,0.2-1,0.5c-1,1.2-3.9,4.8-6.7,7.6c-0.1,0.2-0.4,0-0.4-0.2V1.7c0-0.4-0.4-0.8-0.8-0.8H2.4
		C2,0.9,1.6,1.3,1.6,1.7V10C1.6,13.2,5.9,13.1,5.9,13.1z"/>
</g>
</svg>
