<?xml version="1.0" encoding="utf-8"?>
<!-- Generator: Adobe Illustrator 25.4.1, SVG Export Plug-In . SVG Version: 6.00 Build 0)  -->
<svg version="1.1" id="katman_1" xmlns="http://www.w3.org/2000/svg" xmlns:xlink="http://www.w3.org/1999/xlink" x="0px" y="0px"
	 viewBox="0 0 96 96" style="enable-background:new 0 0 96 96;" xml:space="preserve">
<style type="text/css">
	.st0{fill:#EF233C;}
</style>
<g>
	<path class="st0" d="M53.1,51.1H35.9H19.3c0,0-14.9-0.2-14.9,11v29.1c0,1.5,1.3,2.8,2.8,2.8h26c1.5,0,2.8-1.3,2.8-2.8V66.1
		c0-0.8,0.9-1.1,1.4-0.5c9.7,10.1,19.9,22.5,23.5,26.8c0.9,1,2,1.6,3.3,1.6h23.1c3.7,0,5.6-4.2,3.4-7C81.1,74.8,61.5,51.1,53.1,51.1
		z"/>
	<path class="st0" d="M19.3,44.9h16.6h17.2c8.4,0,28-23.7,37.6-35.8c2.3-2.8,0.2-7-3.4-7H64.1c-1.3,0-2.5,0.5-3.3,1.6
		C57.2,8,46.9,20.4,37.3,30.6c-0.5,0.5-1.4,0.2-1.4-0.5V4.8c0-1.5-1.3-2.8-2.8-2.8h-26C5.6,2,4.3,3.3,4.3,4.8v29.1
		C4.3,45.1,19.3,44.9,19.3,44.9z"/>
</g>
</svg>
