<?xml version="1.0" encoding="utf-8"?>
<!-- Generator: Adobe Illustrator 25.4.1, SVG Export Plug-In . SVG Version: 6.00 Build 0)  -->
<svg version="1.1" id="katman_1" xmlns="http://www.w3.org/2000/svg" xmlns:xlink="http://www.w3.org/1999/xlink" x="0px" y="0px"
	 viewBox="0 0 500 500" style="enable-background:new 0 0 500 500;" xml:space="preserve">
<style type="text/css">
	.st0{fill:#EF233C;}
</style>
<g>
	<path class="st0" d="M277.2,266.5h-91.3H98.1c0,0-78.7-1.1-78.7,58.2v154c0,8,6.8,14.8,14.8,14.8h137.5c8,0,14.8-6.8,14.8-14.8
		V345.8c0-4,4.6-5.7,7.4-2.9c51.3,53.6,105.5,119.2,124.3,142c4.6,5.1,10.8,8.6,17.7,8.6H458c19.4,0,29.7-22.2,18.3-37.1
		C425.4,392,321.6,266.5,277.2,266.5z"/>
	<path class="st0" d="M98.1,233.5h87.8h91.3c44.5,0,148.3-125.5,199.1-189.4C488.2,29.3,477.4,7,458,7H335.3
		c-6.8,0-13.1,2.9-17.7,8.6c-18.8,22.8-73.6,88.4-124.3,142c-2.9,2.9-7.4,1.1-7.4-2.9V21.3c0-8-6.8-14.8-14.8-14.8H33.6
		c-8,0-14.8,6.8-14.8,14.8v154C18.8,234.6,98.1,233.5,98.1,233.5z"/>
</g>
</svg>
